<svg width="122.17mm" height="8.3509mm" version="1.1" viewBox="0 0 122.17 8.3509" xmlns="http://www.w3.org/2000/svg"><g transform="matrix(.84568 0 0 .84568 -50.173 -63.514)" stroke-width="1.1911"><g transform="matrix(.35023 0 0 -.35023 96.269 75.137)"><path d="m0 0c1.701 0 2.742-0.592 3.197-2.029 0.946-2.848 6.584-20.406 7.625-23.556 0.574-1.678-0.74-2.444-1.781-2.444l-5.041-2e-3c-0.666 0-1.473 0.451-1.746 1.283l-0.652 2.041c-0.096 0.249-0.248 0.403-0.524 0.403h-6.58c-0.273 0-0.428-0.154-0.521-0.403l-0.655-2.041c-0.271-0.832-1.078-1.283-1.742-1.283l-5.043 2e-3c-1.041 0-2.355 0.766-1.781 2.444 1.037 3.15 6.678 20.708 7.623 23.556 0.455 1.437 1.498 2.029 3.199 2.029zm-2.221-11.939 1.086-4.07h-2.154z" fill="#104076" fill-rule="evenodd"/></g><g transform="matrix(.35023 0 0 -.35023 91.315 75.144)"><path d="m0 0c1.387-6e-3 2.457-1.189 2.457-2.459v-3.436c0.047-1.271-1.129-2.494-2.494-2.494l-2.674-3e-3c-0.33-0.046-0.598-0.307-0.598-0.598v-16.562c0-1.317-1-2.465-2.439-2.465h-4.025c-1.245 0-2.489 1.172-2.489 2.465l-0.017 16.562c0 0.272-0.252 0.598-0.616 0.598h-2.644c-1.232 0-2.465 1.16-2.465 2.447v3.513c0 1.27 1.256 2.432 2.486 2.432z" fill="#104076" fill-rule="evenodd"/></g><g transform="matrix(.35023 0 0 -.35023 61.465 75.14)"><path d="m0 0c1.591 0 2.728-1.24 2.728-2.729v-5.608l7.797 7.723c0.499 0.381 1.147 0.588 1.798 0.613l5.372-2e-3c0.945-0.127 1.644-0.896 1.939-1.733 0.507-1.851-0.807-2.73-1.663-3.59l-8.644-8.666c-0.101-0.091-0.069-0.239 0-0.316l9.585-9.581c1.666-1.635 0.935-4.119-1.752-4.119l-5.613-0.016c-0.735 0-1.146 0.428-1.736 1.027l-7.082 7.051-0.01-5.349c0-1.438-1.32-2.723-2.734-2.735h-3.339c-1.355 0-2.746 1.248-2.746 2.735l1e-3 22.558c0 1.368 1.163 2.737 2.737 2.737z" fill="#104076" fill-rule="evenodd"/></g><g transform="matrix(.35023 0 0 -.35023 67.306 80.042)"><path d="m0 0c0 7.787 6.311 14.098 14.098 14.098 7.785 0 14.096-6.311 14.096-14.098 0-7.785-6.311-14.097-14.096-14.097-7.787 0-14.098 6.312-14.098 14.097m8.672 0c0 2.997 2.429 5.426 5.426 5.426 2.996 0 5.424-2.429 5.424-5.426 0-2.996-2.428-5.425-5.424-5.425-2.997 0-5.426 2.429-5.426 5.425" fill="#104076" fill-rule="evenodd"/></g><g transform="matrix(.35023 0 0 -.35023 81.487 84.954)"><path d="m0 0h-9.263c-1.2 0.012-2.461 1.131-2.461 2.477l4e-3 3.597c0 1.428 1.125 2.463 2.457 2.475l8.73 2e-3c0.34 0 0.635 0.312 0.635 0.652 0 0.151-0.053 0.289-0.143 0.395-0.118 0.138-0.228 0.343-0.49 0.398-0.491 0.272-6.104 0.615-8.309 2.873-2.205 2.045-3.447 5.339-2.535 8.617 0.946 3.548 3.953 6.463 8.887 6.523h9.051c1.264 0 2.436-1.019 2.467-2.438v-3.484c-0.031-1.234-1.41-2.437-2.797-2.468l-8.325-2e-3c-0.208 0-0.485-0.162-0.472-0.442 0.012-0.242 0.207-0.383 0.571-0.449 4.905-0.897 5.347-1.197 5.357-1.201 3.39-1.319 5.793-4.615 5.793-8.474 0-5.02-4.138-9.051-9.157-9.051" fill="#104076" fill-rule="evenodd"/></g><g transform="matrix(.35023 0 0 -.35023 102.65 75.133)"><path d="m0 0c1.357 0 2.424-1.197 2.424-2.457v-16.408c0-0.271 0.224-0.496 0.449-0.496h7.059c1.461 0 2.404-1.012 2.449-2.428 0 0-8e-3 -2.091 0-3.798 0-1.371-1.078-2.428-2.449-2.428l-13.905 2e-3c-1.308 0-2.47 1.019-2.47 2.375v23.181c-2e-3 1.258 1.16 2.457 2.47 2.457z" fill="#104076" fill-rule="evenodd"/></g><g transform="matrix(.35023 0 0 -.35023 95.498 75.996)"><path d="m0 0 2.67 2e-3c0.193 0 0.359-0.145 0.408-0.336l7.229-22.333c0.103-0.26 0.029-0.452-0.282-0.452h-2.933c-0.287-0.023-0.471 0.071-0.582 0.475l-0.916 2.832c-0.073 0.215-0.215 0.432-0.574 0.432h-10.055c-0.36 0-0.504-0.217-0.576-0.432l-0.914-2.832c-0.127-0.361-0.295-0.498-0.584-0.475h-2.934c-0.311 0-0.385 0.209-0.281 0.452l7.228 22.333c0.049 0.191 0.217 0.336 0.408 0.336zm-0.018-2.586 4.219-12.794c0.084-0.229 0-0.479-0.385-0.479h-7.65c-0.383 0-0.467 0.25-0.383 0.479z" fill="#fff" fill-rule="evenodd"/></g><g transform="matrix(.35023 0 0 -.35023 91.313 76.098)"><path d="m0 0v-2.947c-0.014-0.147-0.133-0.265-0.279-0.265h-4.864c-0.363 0-0.632-0.306-0.632-0.632v-18.708c0-0.145-0.114-0.274-0.266-0.274h-3.482c-0.12 0-0.282 0.119-0.274 0.274v18.716c8e-3 0.299-0.316 0.624-0.625 0.624h-4.824c-0.145 9e-3 -0.281 0.12-0.281 0.265v2.952c0 0.126 0.121 0.268 0.283 0.268l14.965 6e-3c0.146 0 0.279-0.133 0.279-0.279" fill="#fff" fill-rule="evenodd"/></g><g transform="matrix(.35023 0 0 -.35023 60.284 84.092)"><path d="m0 0c-0.149-0.012-0.274 0.1-0.274 0.273v22.549c0 0.137 0.107 0.273 0.292 0.273h3.353c0.145 0 0.265-0.119 0.268-0.273l3e-3 -10.747c-6e-3 -0.218 0.304-0.531 0.549-0.273l11.16 11.108c0.096 0.105 0.218 0.194 0.407 0.188h4.483c0.243 0 0.108-0.224 0.04-0.284l-11.092-11.117c-0.128-0.146-0.147-0.252-2e-3 -0.431l11.009-11.002c0.094-0.084 0.063-0.264-0.097-0.264h-4.606c-0.216 0-0.361 0.061-0.483 0.209l-10.852 10.82c-0.18 0.192-0.505 0.024-0.516-0.301v-10.455c0-0.15-0.12-0.273-0.28-0.273z" fill="#fff" fill-rule="evenodd"/></g><g transform="matrix(.35023 0 0 -.35023 72.251 82.813)"><path d="m0 0c-4.362 0-7.897 3.535-7.897 7.897s3.535 7.897 7.897 7.897 7.897-3.535 7.897-7.897-3.535-7.897-7.897-7.897m0 19.523c-6.42 0-11.625-5.205-11.625-11.626 0-6.42 5.205-11.624 11.625-11.624s11.625 5.204 11.625 11.624c0 6.421-5.205 11.626-11.625 11.626" fill="#fff" fill-rule="evenodd"/></g><g transform="matrix(.35023 0 0 -.35023 81.498 84.101)"><path d="m0 0-8.888 0.016c-0.18 0-0.408 0.228-0.396 0.422v2.794c-0.012 0.194 0.168 0.397 0.367 0.411h8.24c1.758 0 3.268 1.431 3.268 3.187 0 1.516-1.056 2.785-2.474 3.106-0.611 0.181-1.218 0.224-1.826 0.363-2.543 0.404-5.432 1.038-6.691 3.48-1.089 1.68-1.005 4.324-0.068 6.082 0.905 1.664 2.742 3.029 4.761 3.274l1.183-0.014h8.716c0.178-8e-3 0.317-0.137 0.317-0.299v-2.866c0-0.185-0.104-0.308-0.317-0.308l-8.496 3e-3c-1.569 0-2.866-1.27-2.866-2.837 0-0.993 0.513-1.867 1.285-2.375 0.75-0.43 1.634-0.577 2.514-0.727 0.577-0.096 2.055-0.421 2.399-0.513 0 0 1.261-0.287 1.986-0.662 2.409-1.246 3.645-3.334 3.645-5.922 0-3.66-2.999-6.615-6.659-6.615" fill="#fff" fill-rule="evenodd"/></g><g transform="matrix(.35023 0 0 -.35023 102.63 76.09)"><path d="m0 0-4e-3 -18.608c0-0.269 0.18-0.473 0.471-0.473h9.082c0.269 0 0.472-0.201 0.451-0.47v-2.834c-0.023-0.246-0.203-0.448-0.473-0.471h-13.084c-0.201 0-0.382 0.18-0.382 0.471l-4e-3 22.385c0.023 0.138 0.16 0.274 0.285 0.274h3.373c0.137 0 0.285-0.126 0.285-0.274" fill="#fff" fill-rule="evenodd"/></g></g><text x="48.743378" y="6.8440642" fill="#104076" font-family="Arial" font-size="7.1601px" letter-spacing="0px" stroke-width=".26458" word-spacing="0px" style="line-height:1.25" xml:space="preserve"><tspan x="48.743378" y="6.8440642" fill="#104076" font-family="Arial" font-weight="bold" stroke-width=".26458">Laborsystem ISOCAL</tspan></text></svg>